<svg id="Слой_1" xmlns="http://www.w3.org/2000/svg" xmlns:xlink="http://www.w3.org/1999/xlink" viewBox="0 0 960 718"><style>.st3{fill:#cbcbcb}.st4{fill:#828282}.st5{fill:#bdbdbd}.st6{fill:#a5a5a5}.st8{fill:#c25046}.st13{stroke:#c4c4c4;stroke-miterlimit:10}.st13,.st14{fill:#c4c4c4}.st15{stroke:#c4c4c4;stroke-miterlimit:10}.st15,.st16{fill:#fff}.st18{fill:#9b9b9b}</style><path fill="#fbfbfb" d="M0 1h960v716H0z"/><path d="M500.3 344.4c123.2.7 257.9 8 395.5 26.6 4.1-15.5 6.3-31.8 6.3-48.5 0-108-90.2-195.5-201.5-195.5S499 214.5 499 322.5c0 7.4.4 14.7 1.3 21.9z" opacity=".3" fill="#d8d8d8"/><defs><path id="SVGID_1_" d="M0 0h960v717H0z"/></defs><clipPath id="SVGID_2_"><use xlink:href="#SVGID_1_" overflow="visible"/></clipPath><g opacity=".35" clip-path="url(#SVGID_2_)"><path class="st3" d="M-85 389s541.4-100.4 1094.4 0v305.3H-85V389z"/><path class="st3" d="M-85 418.7s541.4-100.4 1094.4 0V724H-85V418.7z"/><path class="st3" d="M-22.8 413.6L29.3 360l228.4-11.5 47.6 46.1-328.1 19zM701.2 393.2l25.7-39.3 200.1 9.2 27.6 63-253.4-32.9z"/><path class="st4" d="M792.1 647.8c1-1 1.6-2 1.6-3.1.4-10.1-40.6-20.3-91.6-22.6-51.1-2.3-93 3.8-93.4 13.9 0 1.3.6 2.6 1.9 3.9 18.4-18.6 161.2-12.6 181.5 7.9z"/><path class="st5" d="M792.1 647.8c-20.3-20.6-163.1-26.7-181.5-7.9 20.3 20.6 163.1 26.6 181.5 7.9z"/><path class="st4" d="M303.2 636c13.4-12.4-21.9-23.6-70.5-22.6-46.3 1-80.8 13-70.6 24.5 20.7-19.3 124.9-20.6 141.1-1.9z"/><path class="st5" d="M303.2 636c-16.2-18.7-120.4-17.4-141.1 1.9 16.2 18.7 120.3 17.4 141.1-1.9z"/><path class="st4" d="M81.5 497.5C96.7 481 40.6 475-32.6 485.1c-73.5 10.1-125.5 31.1-106.5 42.9 24.5-26.5 190-49.4 220.6-30.5z"/><path class="st5" d="M81.5 497.5c-30.8-19-196.1 3.8-220.6 30.4 30.8 19.1 196.2-3.8 220.6-30.4z"/><path class="st6" d="M254.4 352.6c17.5-9.8-37.2-15.6-111.9-11.5C68.4 345 14.8 356.4 32 364.4c28.3-15.9 194.4-24.5 222.4-11.8z"/><path class="st4" d="M254.4 352.6c-28-12.8-194.2-4.1-222.4 11.7 28.2 13 194.3 4.2 222.4-11.7z"/><path d="M322.6 410.4c8.5-6.1-9.5-13.3-35.5-14.2-24.8-.9-43 4.5-37.1 10.9 12.4-8.8 63.5-6.5 72.6 3.3z" fill="#a04947"/><path class="st8" d="M322.6 410.4c-9-9.8-60.1-12.1-72.5-3.2 9 9.6 60.2 12 72.5 3.2z"/><path class="st6" d="M923.3 367.1c17.5-7.7-29.5-18.4-95.9-21.3-66.7-3.1-114.7 3.5-97 12.8 27-12 165.9-5.8 192.9 8.5z"/><path class="st4" d="M923.3 367.1c-27-14.3-165.9-20.4-192.9-8.5 27 14.3 165.9 20.4 192.9 8.5zM674.5 420.5c-30.6 0-53 7.6-44.7 15.3 12.7-11.5 76.5-11.5 89.2 0 8.6-7.7-13.7-15.3-44.5-15.3z"/><path class="st8" d="M630 435.8c12.7 11.5 76.5 11.5 89.2 0-12.7-11.7-76.5-11.7-89.2 0z"/><path class="st4" d="M1041.7 509.1c16.3-12.7-36.9-30.6-109.3-37.1-74.1-6.6-129.9 2.5-113.2 18.2 27.1-21 195.5-6.7 222.5 18.9z"/><path class="st5" d="M1041.7 509.1c-27-25.5-195.4-39.8-222.4-18.8 27 25.6 195.5 39.9 222.4 18.8z"/><path d="M662.4 216.6c-146-18.6-291-43.2-434.5-74.2 3.9-11.2 12.5-20.9 23.7-26.6-152-18.8-310.1-37.4-456.5 4.4-5.8-13.1-11.8-25.9-17.6-39 23.2 6.1 47.8 3.4 71.9 1.1 129.3-12 259.9-8.2 389 5.3 15.1 1.7 32.3 4.2 40.8 15.8 8.6 11.4-2.6 32.3-16.9 27.4 94.7 17.7 190.1 33.5 285.5 47.7 13-12.9 36-7.8 54.1-2.1 39.7 12.7 79.8 24.3 121.6 28.7 62.7 6.7 126-2.7 188.2-12.4 28.3-4.4 57.1-9.1 83.6-19.4 17.9-7 34.4-16.4 52.7-22.1 18.3-5.7 39.7-7 56.2 2.3 20.4 11.4 27.6 46-.2 53.3-10.7 2.7-23.7 0-35 2.5-17.6 3.8-35.1 8.9-52.9 12-73.8 13.5-149.9 13.7-224.9 8.6-43.4-3.2-86.3-7.9-128.8-13.3z" opacity=".8" fill="#e0e0e0"/><path class="st4" d="M88.4 465.9c12.7 0 23.1-3 23.1-6.7s-10.3-6.7-23.1-6.7c-12.7 0-23.1 3-23.1 6.7s10.3 6.7 23.1 6.7zM813.1 420.5c0-3.6-10.4-6.7-23.1-6.7-12.7 0-23.1 2.9-23.1 6.7 0 3.6 10.4 6.7 23.1 6.7 12.8-.2 23.1-3.1 23.1-6.7zM185.1 603.8c0-3.6-10.4-6.7-23.1-6.7-12.7 0-23.1 2.9-23.1 6.7 0 3.6 10.4 6.7 23.1 6.7 12.7 0 23.1-3.1 23.1-6.7z"/><path class="st8" d="M656 410.1c.3-4.5-12.1-8.8-27.4-9.6-15.5-.9-28.2 2-28.3 6.6-.3 4.5 12.1 8.8 27.4 9.6 15.3.7 28-2.2 28.3-6.6z"/></g><path d="M490.8 557.6c189.3 0 342.8-15.8 342.8-35.3 0-19.5-153.5-35.3-342.8-35.3S148 502.8 148 522.3c0 19.5 153.5 35.3 342.8 35.3z" opacity=".5" fill="#c6c6c6"/><path d="M749.9 182.4c-1.2 1.2-29.2 38.9-31.4 42.6l31.4-42.6z" fill="#fdaf8d"/><path class="st13" d="M749.9 182.4c-1.2 1.2-29.2 38.9-31.4 42.6"/><path class="st14" d="M706.3 250c-.4-2.7-1.6-4.3 0-6.3s12.1-17.5 12.9-18.3c.8-.8-.2-2.3-1.5-.8-1.3 1.4-10.4 14.6-13.4 17.3-3 2.7-8.2 7.9-10.3 8.2-2.2.3 12.3-.1 12.3-.1z"/><path class="st13" d="M806.9 482c-22-2.3-84.7-9.7-138.3 12.3 0 0-21.5-11.2-18.3-42.8 3.2-31.6 29-59.3 78.2-59.3s93.8 34.2 78.4 89.8zM322.9 495.8c-9.1-9.1-100.4-22.7-137.8-3.4 0 0-21.5-6.5-13.7-45.9 7.9-39.4 32-56.1 78.4-57.5 46.4-1.3 78.8 38.4 80.3 61.1 1.5 22.7-7.2 45.7-7.2 45.7z"/><path class="st15" d="M806.9 482c2.7-1 6.8-2.2 10.2-5.3 3.3-3.2 9-19 9.7-29.2.3-4.8-2.5-5.6-2.5-9 .1-9-.5-28.8-.5-30.3s0-3.8-3.2-8.3-4.6-7.5-8-8.8c-7.2-2.8-4.8-9-4.9-13.2-.4-19.1-9.1-47.4-11-53.8-2.8-9.4-10.5-27.7-36.5-54.2 0 0 4.2-7.3 6.2-9 2-1.7-2-2.7-7.7-4-5.7-1.3-83.2-13.2-174.2-13.2s-145.3 3-201 37-83.7 48.3-88.7 51c-2.7.3-49 9.7-64.7 15.7s-51.7 12.7-67.3 46.7c-4 8.7-7 18-11.3 22s-8.3 23.7-5.7 35.3c2.7 11.7 9.7 20 1.7 26.7-8 6.7-6.3 8-.7 10s17.7 6.7 26 6.7 12.2-.3 12.1-2.3c-2.3-74.4 47.9-84.9 68.9-83.7 66.1 3.8 65.8 63.7 68.9 87.1 11.7 1.7 141 .2 189.4-1.1 48.3-1.3 149.7-.3 156.3-.3.7-11-1.3-88.7 68.3-88.3 65.6.2 67.9 54.5 70.2 75.8z"/><path class="st16" d="M316 340.4s-9.4-8.3-11.4-9.6l11.4 9.6z"/><path class="st15" d="M316 340.4s-9.4-8.3-11.4-9.6"/><path class="st16" d="M283.8 336c-1.8 3.9-7.8 10.7-10.5 12.4-2.7 1.7-11.8 4.2-18.8 6.3-7 2.2-46.3 12.9-49.5 15.4"/><path class="st15" d="M283.8 336c-1.8 3.9-7.8 10.7-10.5 12.4-2.7 1.7-11.8 4.2-18.8 6.3-7 2.2-46.3 12.9-49.5 15.4"/><path d="M582.4 371.6c0-3.8-2.5-9.9-12.3-9.9s-11.1 6.6-11 10.1c.1 3.5 2 10.4 11.2 9.6 9.1-.9 12.1-4.8 12.1-9.8z" fill="#d69f2f"/><path class="st15" d="M602.3 258.7c17.7-.1 89 4.7 97.7 7 8.7 2.3 10 5.3 13 9s21 31 21 45-4.3 12.7-12.3 13c-8 .3-119.7 7.7-130.7 7.7-.7-24.4 4.6-68.4 11.3-81.7z"/><path class="st14" d="M610.9 321.6c-.4 6.7 5.2 12.3 12 11.8 17-1.2 40.3-3.1 63.9-4.6 18.5-1.2 31.9-2 34.6-2.1.8 0 1.5 0 2.2-.1 1.2 0 2.9-.1 3.6-.2.2-.5.7-2.2.7-6.7 0-11.4-16.3-37.1-19.6-41.2l-1.2-1.5c-2.1-2.7-3.1-4-8.7-5.5-6.4-1.7-45.3-5.3-69.6-6.4-5.4-.3-10.2 3.4-11.5 8.7-2.9 12.6-5.4 31.1-6.4 47.8z"/><path class="st15" d="M348.5 322.5c.6-2.2 1.1-3.8 1.5-4.5 15-10 78-47.3 113.3-51.7 35.3-4.3 128.3-8.3 139-7.6-1.7 8-11 72.3-11.3 81.7-12.3 1.7-225 14.7-248.7 15.3.1-1.5.4-3.8.9-6.4 1.3-8.2 4.3-19.5 5.3-26.8z"/><path class="st14" d="M348.5 322.5c23-14.3 85.8-47.9 115.7-51.5 30.8-3.8 104.1-7.2 129.9-7.6-2.7 16.9-7.8 55-9.5 70.6-31 2.5-187.3 12.5-241.4 15.3 1.2-8.2 3.5-20.1 5.3-26.8z"/><path class="st15" d="M348.5 322.5c7.5-4.7 19.4-11.5 33-18.6-1.6 9.2-5.4 32.9-6 43.5-12.7.7-23.8 1.4-32.3 1.8 1.2-8.1 3.5-20 5.3-26.7z"/><path class="st15" d="M394.4 331.5c-.8-1.5-6.7-7.5-13-7.7-6.3-.2-19.6 3.7-25.3 8.5-.7 2.5 1.8 9.8 6.2 16 5.5 2.7 24.3 1.2 31.3 0 2.3-2.1 2.5-10.8.8-16.8z"/><path class="st15" d="M393.1 341c.2-1 .2-7.8 0-9.3-.2-1.5-4.7-5.5-8-7.1 4.8 1.7 8.7 5.8 9.4 7 1.7 6 1.5 14.7-.8 16.8-7 1.2-25.8 2.7-31.3 0-1.2-1.7-2.3-3.5-3.1-5.2 10.1.2 31.2-.8 33.8-2.2zM349.9 318c-14.8 8.8-38.8 22.2-40.2 28.2-1.3 6 6.2 8.5 12.7 9.5 4.3.7 17 .1 19.8 0l7.7-37.7z"/><path class="st14" d="M349.1 322.1c-9.2 5.6-29 19.9-31 21.7-2 1.8-2.9 3.2-1.2 4.6 1.7 1.4 4.6 1.4 8.9 1.4 4.3 0 14.2-.4 17.8-.6l5.5-27.1z"/><path class="st15" d="M590.9 340.4c7.4 12.6 14.7 27.6 11.4 78.6-3.3 51-9 57-18.7 57.7-9.7.7-234 5.3-237 5.7-2.7-4.3-7.3-24-8.7-60-1.3-36 1.7-60.1 4.3-66.7l248.7-15.3z"/><path class="st15" d="M592.4 371.2c.1 1.5-.8 3.3-4.7 3-6.8-.6-26.9.6-30.3 1.3-3.3.7-6-4.7-1.8-6s16.7-1.4 22.8-1.5c10-.1 13.7-.5 14 3.2z"/><path class="st14" d="M294.9 331.7c5-2.7 33-17 88.7-51 15.2-9.3 30.2-16.2 45.9-21.4l4.1 2.8c-17.7 2.3-94 51-117.6 64.6-12.6 7.2-25.6 9.3-27.5 6.3 3.5-.8 5.9-1.2 6.4-1.3z"/><path class="st15" d="M294.9 331.7c.5 1.2 2.5 2.5 0 3.3-2.8 1-10.2 2.6-17.3 2.6-3.3 0-7.5.1-8.4-.6 13.2-2.9 24.5-5.2 25.7-5.3zM164.2 391.4c2.1-3.8 14.7-19.1 33-22.3 18-3.1 20.5-2 23.3 1s3.3 5.6 0 8.7c-7.2 6.8-30.8 23.8-45 30-3.5 1.5-5.1-3-7.4-3-2.3 0-7.6 1.9-8.1 2.4.6-2.8 4-14.9 6-16.6l-1.8-.2z"/><path class="st14" d="M165.9 391.6c4-5.1 15.9-17 36.4-21.5 19-4.1 20.5 3.3 20.3 5.1V375.5c-.3 1.1-.9 2.1-2.1 3.3-7.2 6.8-30.8 23.8-45 30-3.5 1.5-5.1-3-7.4-3-2.3 0-7.6 1.9-8.1 2.4.6-2.7 3.9-14.8 5.9-16.6z"/><path class="st15" d="M153.2 459.1c-.5-4.8.7-8.8 2.6-9 1.9-.2 3.8 3.6 4.2 8.3.5 4.8-.7 8.8-2.6 9-1.9.2-3.8-3.5-4.2-8.3zM151 467.5c2.6 1.2 12.3 4.2 14.5 5 0 0 1.7 4.3 1.8 6-2.8-.2-13.2-1.3-17.5-2.8 1.7-2.5 1.8-5.2 1.2-8.2zM796.7 324c2.1 6.3 10.6 34.6 11 53.8.1 2.7-.9 6.1.2 9-2.2-1.9-7.3-5.1-8.2-12.9-.8-7.8 6.4-50.9-39.5-104 13.4 14.1 26.5 24.1 36.5 54.1z"/><path class="st15" d="M801.6 341.3c2.9 11.2 5.9 25.4 6.1 36.5.1 2.7-.9 6.1.2 9-2.2-1.9-7.3-5.1-8.2-12.9-.4-3.9.6-15.5-2.1-31.1 1.7-.8 2.7-1.1 4-1.5zM656.3 478.5c2-19.2 12-81.9 77.7-83.3 72-1.6 83.2 59.8 83.2 81.5-3.3 3.2-7.5 4.3-10.2 5.3-2.3-21.3-4.7-75.7-70-76-69.7-.4-67.7 77.3-68.3 88.3-1.3 0-6 0-13.2-.1 0-5.2.2-10.7.8-15.7zM253.4 396.7c70.8 1.2 78.5 67.7 79.1 88l-1 11.6c-4.3-.1-7.3-.3-8.7-.5-3.1-23.5-2.8-83.3-68.9-87.1-21-1.2-71.2 9.3-68.9 83.7-3.9-2-10.8-8.5-10.6-19.4.5-30.4 21.5-77.3 79-76.3z"/><path class="st18" d="M253.5 536.4c-32 0-58-26-58-58s26-58 58-58 58 26 58 58-26 58-58 58z"/><path class="st15" d="M253.5 518.8c-22.3 0-40.4-18.1-40.4-40.4 0-22.3 18.1-40.4 40.4-40.4 22.3 0 40.4 18.1 40.4 40.4 0 22.3-18.1 40.4-40.4 40.4z"/><path class="st15" d="M244.6 472.7l-18.9-10.2c-1.9-1-2.4-3.4-1.2-5.1 4.4-6.1 10.8-10.8 18.2-13.2 2-.6 4.1.7 4.5 2.7l3.7 21.1c.6 3.7-3.1 6.4-6.3 4.7zm11.5-4.6L260 447c.4-2.1 2.5-3.4 4.5-2.7 7.4 2.4 13.7 7.1 18.1 13.3 1.2 1.7.6 4.1-1.2 5.1l-19 10c-3.1 1.7-6.9-1-6.3-4.6zm1.3 20.1l9.4 19.3c.9 1.9 0 4.2-2 4.8-3.5 1.2-7.3 1.8-11.2 1.8-3.9 0-7.7-.6-11.2-1.8-2-.7-2.9-2.9-2-4.8l9.4-19.3c1.4-3.3 6-3.3 7.6 0zm-35.7-13.5l21.3 3c3.6.5 5 4.9 2.4 7.4l-15.5 14.8c-1.5 1.4-4 1.3-5.2-.4-4.4-5.9-6.9-13.2-6.9-21.2v-.3c-.1-2 1.8-3.6 3.9-3.3zm42.4 3l21.3-2.8c2.1-.3 3.9 1.3 3.9 3.4 0 8-2.6 15.4-7.1 21.4-1.3 1.7-3.7 1.9-5.2.4l-15.4-14.9c-2.6-2.6-1.1-7 2.5-7.5z"/><path class="st14" d="M253.5 481.3c-1.6 0-2.9-1.3-2.9-2.9 0-1.6 1.3-2.9 2.9-2.9 1.6 0 2.9 1.3 2.9 2.9 0 1.6-1.3 2.9-2.9 2.9zM252.1 483.6c0-.7.6-1.4 1.4-1.4.7 0 1.4.6 1.4 1.4 0 .7-.6 1.4-1.4 1.4s-1.4-.6-1.4-1.4zM248.1 478.7c.7-.2 1.5.2 1.7.9.2.7-.2 1.5-.9 1.7-.7.2-1.5-.2-1.7-.9-.2-.7.2-1.5.9-1.7zM251.5 473.3c.4.6.3 1.5-.3 1.9-.6.4-1.5.3-1.9-.3-.4-.6-.3-1.5.3-1.9.6-.4 1.5-.3 1.9.3zM257.7 474.9c-.4.6-1.3.7-1.9.3-.6-.4-.7-1.3-.3-1.9.4-.6 1.3-.7 1.9-.3.6.5.7 1.3.3 1.9zM258 481.3c-.7-.2-1.1-1-.9-1.7.2-.7 1-1.1 1.7-.9.7.2 1.1 1 .9 1.7-.2.7-.9 1.1-1.7.9z"/><path class="st18" d="M739.3 538.1c-33 0-59.7-26.7-59.7-59.7s26.7-59.7 59.7-59.7 59.7 26.7 59.7 59.7-26.8 59.7-59.7 59.7z"/><path class="st15" d="M739.3 520c-23 0-41.6-18.6-41.6-41.6s18.6-41.6 41.6-41.6 41.6 18.6 41.6 41.6-18.7 41.6-41.6 41.6z"/><path class="st15" d="M730.1 472.5L710.7 462c-1.9-1-2.5-3.5-1.2-5.3 4.6-6.3 11.1-11.1 18.7-13.5 2.1-.7 4.2.7 4.6 2.8l3.8 21.7c.7 3.8-3.2 6.6-6.5 4.8zm11.9-4.7l4-21.7c.4-2.1 2.6-3.4 4.6-2.8 7.6 2.5 14.1 7.3 18.6 13.7 1.3 1.8.7 4.2-1.3 5.3l-19.5 10.3c-3.2 1.7-7.1-1.1-6.4-4.8zm1.3 20.7l9.6 19.9c.9 1.9 0 4.3-2.1 5-3.6 1.2-7.5 1.9-11.6 1.9-4 0-7.9-.7-11.6-1.9-2.1-.7-3-3-2.1-5l9.6-19.9c1.8-3.4 6.6-3.4 8.2 0zm-36.8-13.9l21.9 3c3.7.5 5.2 5.1 2.5 7.7L715 500.6c-1.6 1.5-4.1 1.3-5.4-.4-4.5-6.1-7.1-13.6-7.1-21.8v-.3c0-2.2 1.9-3.8 4-3.5zm43.6 3.1l21.9-2.9c2.1-.3 4.1 1.3 4.1 3.5 0 8.2-2.7 15.8-7.3 22-1.3 1.7-3.8 1.9-5.4.4l-15.8-15.4c-2.7-2.6-1.2-7.1 2.5-7.6z"/><g><path class="st14" d="M736.3 478.4c0-1.7 1.3-3 3-3s3 1.3 3 3-1.3 3-3 3-3-1.4-3-3zM739.3 485.2c-.8 0-1.4-.6-1.4-1.4 0-.8.6-1.4 1.4-1.4s1.4.6 1.4 1.4c0 .8-.7 1.4-1.4 1.4zM733.7 478.7c.7-.2 1.5.2 1.8.9.2.7-.2 1.5-.9 1.8-.7.2-1.5-.2-1.8-.9-.2-.8.2-1.6.9-1.8zM737.2 473.2c.5.6.3 1.5-.3 1.9-.6.5-1.5.3-1.9-.3-.5-.6-.3-1.5.3-1.9.6-.5 1.5-.4 1.9.3zM743.6 474.8c-.5.6-1.3.8-1.9.3-.6-.5-.8-1.3-.3-1.9.5-.6 1.3-.8 1.9-.3.6.4.7 1.3.3 1.9zM743.9 481.4c-.7-.2-1.1-1-.9-1.8.2-.7 1-1.1 1.8-.9.7.2 1.1 1 .9 1.8-.2.7-1 1.1-1.8.9z"/></g></svg>
